<svg width="12" height="18" viewBox="0 0 12 18" fill="none" xmlns="http://www.w3.org/2000/svg">
<path d="M5.99935 17.3333C4.52713 17.3333 3.32574 17.1007 2.39518 16.6354C1.46463 16.1701 0.999349 15.5694 0.999349 14.8333C0.999349 14.5 1.10004 14.1909 1.30143 13.9062C1.50282 13.6215 1.78407 13.375 2.14518 13.1666L3.45768 14.3958C3.33268 14.4513 3.19727 14.5138 3.05143 14.5833C2.9056 14.6527 2.79102 14.7361 2.70768 14.8333C2.88824 15.0555 3.3049 15.25 3.95768 15.4166C4.61046 15.5833 5.29102 15.6666 5.99935 15.6666C6.70768 15.6666 7.39171 15.5833 8.05143 15.4166C8.71116 15.25 9.1313 15.0555 9.31185 14.8333C9.21463 14.7222 9.08963 14.6319 8.93685 14.5625C8.78407 14.493 8.63824 14.4305 8.49935 14.375L9.79102 13.125C10.1799 13.3472 10.4785 13.6007 10.6869 13.8854C10.8952 14.1701 10.9994 14.4861 10.9994 14.8333C10.9994 15.5694 10.5341 16.1701 9.60352 16.6354C8.67296 17.1007 7.47157 17.3333 5.99935 17.3333ZM6.02018 12.75C7.39518 11.7361 8.42991 10.7187 9.12435 9.69788C9.81879 8.67704 10.166 7.65274 10.166 6.62496C10.166 5.20829 9.71463 4.13885 8.81185 3.41663C7.90907 2.6944 6.97157 2.33329 5.99935 2.33329C5.02713 2.33329 4.08963 2.6944 3.18685 3.41663C2.28407 4.13885 1.83268 5.20829 1.83268 6.62496C1.83268 7.55551 2.17296 8.52426 2.85352 9.53121C3.53407 10.5382 4.58963 11.6111 6.02018 12.75ZM5.99935 14.8333C4.04102 13.3888 2.57921 11.9861 1.61393 10.625C0.648655 9.26385 0.166016 7.93051 0.166016 6.62496C0.166016 5.63885 0.343099 4.77426 0.697266 4.03121C1.05143 3.28815 1.50629 2.66663 2.06185 2.16663C2.6174 1.66663 3.2424 1.29163 3.93685 1.04163C4.63129 0.791626 5.31879 0.666626 5.99935 0.666626C6.67991 0.666626 7.36741 0.791626 8.06185 1.04163C8.7563 1.29163 9.3813 1.66663 9.93685 2.16663C10.4924 2.66663 10.9473 3.28815 11.3014 4.03121C11.6556 4.77426 11.8327 5.63885 11.8327 6.62496C11.8327 7.93051 11.35 9.26385 10.3848 10.625C9.41949 11.9861 7.95768 13.3888 5.99935 14.8333ZM5.99935 8.16663C6.45768 8.16663 6.85004 8.00343 7.17643 7.67704C7.50282 7.35065 7.66602 6.95829 7.66602 6.49996C7.66602 6.04163 7.50282 5.64926 7.17643 5.32288C6.85004 4.99649 6.45768 4.83329 5.99935 4.83329C5.54102 4.83329 5.14866 4.99649 4.82227 5.32288C4.49588 5.64926 4.33268 6.04163 4.33268 6.49996C4.33268 6.95829 4.49588 7.35065 4.82227 7.67704C5.14866 8.00343 5.54102 8.16663 5.99935 8.16663Z" fill="#49454F"/>
</svg>
