<svg width="20" height="20" viewBox="0 0 20 20" fill="none" xmlns="http://www.w3.org/2000/svg">
<path d="M3.33203 12.5V7.08333C3.33203 5.01227 5.01096 3.33333 7.08203 3.33333C9.15311 3.33333 10.832 5.01227 10.832 7.08333V12.9167C10.832 14.0673 11.7648 15 12.9154 15C14.0659 15 14.9987 14.0673 14.9987 12.9167V7.35774C14.0277 7.01455 13.332 6.08852 13.332 5C13.332 3.61929 14.4513 2.5 15.832 2.5C17.2128 2.5 18.332 3.61929 18.332 5C18.332 6.08852 17.6364 7.01455 16.6654 7.35774V12.9167C16.6654 14.9878 14.9864 16.6667 12.9154 16.6667C10.8443 16.6667 9.16536 14.9878 9.16536 12.9167V7.08333C9.16536 5.93274 8.23262 5 7.08203 5C5.93144 5 4.9987 5.93274 4.9987 7.08333V12.5H7.4987L4.16536 16.6667L0.832031 12.5H3.33203ZM15.832 5.83333C16.2923 5.83333 16.6654 5.46023 16.6654 5C16.6654 4.53977 16.2923 4.16667 15.832 4.16667C15.3718 4.16667 14.9987 4.53977 14.9987 5C14.9987 5.46023 15.3718 5.83333 15.832 5.83333Z" fill="#1C64F2"/>
</svg>
