<svg width="20" height="20" viewBox="0 0 20 20" fill="none" xmlns="http://www.w3.org/2000/svg">
<mask id="mask0_837_15583" style="mask-type:alpha" maskUnits="userSpaceOnUse" x="0" y="0" width="20" height="20">
<rect width="20" height="20" fill="#D9D9D9"/>
</mask>
<g mask="url(#mask0_837_15583)">
<path d="M12.7493 13.9167L13.916 12.7501L10.8327 9.66675V5.83341H9.16602V10.3334L12.7493 13.9167ZM9.99935 18.3334C8.84657 18.3334 7.76324 18.1147 6.74935 17.6772C5.73546 17.2397 4.85352 16.6459 4.10352 15.8959C3.35352 15.1459 2.75977 14.264 2.32227 13.2501C1.88477 12.2362 1.66602 11.1529 1.66602 10.0001C1.66602 8.8473 1.88477 7.76397 2.32227 6.75008C2.75977 5.73619 3.35352 4.85425 4.10352 4.10425C4.85352 3.35425 5.73546 2.7605 6.74935 2.323C7.76324 1.8855 8.84657 1.66675 9.99935 1.66675C11.1521 1.66675 12.2355 1.8855 13.2493 2.323C14.2632 2.7605 15.1452 3.35425 15.8952 4.10425C16.6452 4.85425 17.2389 5.73619 17.6764 6.75008C18.1139 7.76397 18.3327 8.8473 18.3327 10.0001C18.3327 11.1529 18.1139 12.2362 17.6764 13.2501C17.2389 14.264 16.6452 15.1459 15.8952 15.8959C15.1452 16.6459 14.2632 17.2397 13.2493 17.6772C12.2355 18.1147 11.1521 18.3334 9.99935 18.3334ZM9.99935 16.6667C11.8466 16.6667 13.4195 16.0174 14.7181 14.7188C16.0167 13.4202 16.666 11.8473 16.666 10.0001C16.666 8.15286 16.0167 6.57994 14.7181 5.28133C13.4195 3.98272 11.8466 3.33341 9.99935 3.33341C8.15213 3.33341 6.57921 3.98272 5.2806 5.28133C3.98199 6.57994 3.33268 8.15286 3.33268 10.0001C3.33268 11.8473 3.98199 13.4202 5.2806 14.7188C6.57921 16.0174 8.15213 16.6667 9.99935 16.6667Z" fill="#49454F"/>
</g>
</svg>
