<svg width="20" height="20" viewBox="0 0 20 20" fill="none" xmlns="http://www.w3.org/2000/svg">
<mask id="mask0_837_15578" style="mask-type:alpha" maskUnits="userSpaceOnUse" x="0" y="0" width="20" height="20">
<rect width="20" height="20" fill="#D9D9D9"/>
</mask>
<g mask="url(#mask0_837_15578)">
<path d="M9.12565 15.0001L13.834 10.2917L12.6257 9.08342L9.10482 12.6042L7.35482 10.8542L6.16732 12.0417L9.12565 15.0001ZM5.00065 18.3334C4.54232 18.3334 4.14996 18.1702 3.82357 17.8438C3.49718 17.5174 3.33398 17.1251 3.33398 16.6667V3.33341C3.33398 2.87508 3.49718 2.48272 3.82357 2.15633C4.14996 1.82994 4.54232 1.66675 5.00065 1.66675H11.6673L16.6673 6.66675V16.6667C16.6673 17.1251 16.5041 17.5174 16.1777 17.8438C15.8513 18.1702 15.459 18.3334 15.0007 18.3334H5.00065ZM10.834 7.50008V3.33341H5.00065V16.6667H15.0007V7.50008H10.834Z" fill="#49454F"/>
</g>
</svg>
